<svg version="1.1" id="Layer_1" xmlns="http://www.w3.org/2000/svg" xmlns:xlink="http://www.w3.org/1999/xlink" x="0px" y="0px"
	 width="100%" viewBox="0 0 848 864" enable-background="new 0 0 848 864" xml:space="preserve">
<path fill="#000000" opacity="1.000000" stroke="none" 
	d="
M549.011902,376.017517 
	C546.479248,376.313507 545.595337,374.240692 544.454834,372.700989 
	C539.245361,365.667633 532.593201,360.161957 525.431580,355.096252 
	C531.579468,362.461517 537.781372,369.782532 543.856262,377.207581 
	C547.872437,382.116364 551.575134,387.243347 552.848145,393.675842 
	C553.397339,396.450958 553.406921,399.308563 550.616821,400.709106 
	C547.884033,402.080872 545.273987,401.020264 542.806030,399.147675 
	C538.693848,396.027496 534.949829,393.005249 528.889954,392.765686 
	C522.792419,392.524628 517.315247,388.431274 514.713318,382.253662 
	C513.380371,379.089050 511.550629,377.976074 508.257629,378.298035 
	C500.519409,379.054688 493.469696,376.652771 486.154846,372.825684 
	C480.800690,368.423645 479.721619,363.752747 482.027985,357.741333 
	C484.371918,351.632080 484.030426,344.982941 484.314331,338.514404 
	C484.420013,336.106445 483.385345,333.214966 487.192444,332.774719 
	C490.749969,332.363251 494.009033,332.864441 495.237976,336.882690 
	C495.840546,338.852936 495.984344,340.963501 496.430206,343.560455 
	C498.499603,341.209808 500.207001,339.270294 502.251862,336.947479 
	C497.200562,332.880066 491.334320,330.825562 486.001831,327.941986 
	C481.574066,325.547607 480.141235,321.352203 478.241333,317.400330 
	C477.350159,315.546631 478.473969,313.875305 480.349365,312.911865 
	C485.858978,310.081543 489.508911,305.566132 490.696045,299.608795 
	C492.757507,289.264282 492.579895,278.706055 490.746155,268.421326 
	C489.698090,262.543304 488.355011,256.777283 488.473969,250.732437 
	C486.938568,250.753845 486.656342,253.397202 484.499420,252.230728 
	C483.911102,248.733414 486.814087,245.971680 487.110962,242.106033 
	C484.716675,244.869370 484.291626,248.071136 482.966370,250.834213 
	C482.015594,252.816574 480.391541,254.135040 478.134705,253.276001 
	C475.681396,252.342178 475.810913,250.226212 476.729767,248.247803 
	C477.705383,246.147263 479.074463,244.224350 479.987701,242.101654 
	C480.664459,240.528656 482.509003,238.829742 480.300781,236.721878 
	C477.633850,238.715714 477.901642,241.989197 476.276947,244.244873 
	C474.010345,247.391617 471.145782,244.835892 468.533417,244.956558 
	C466.268890,249.953201 466.068695,255.189880 465.491516,260.240082 
	C464.863708,265.733063 462.249146,269.510498 457.884460,272.469299 
	C450.511841,277.467194 444.348389,283.745178 438.760529,290.633728 
	C432.088104,298.859253 424.198883,304.557953 412.833527,303.326996 
	C410.797516,303.106445 408.229675,302.511261 406.871887,304.784851 
	C405.042877,307.847412 403.363251,306.963593 401.344055,305.102325 
	C394.856018,299.121704 388.213898,293.311157 382.578186,286.458984 
	C380.792542,284.287903 378.902435,282.033844 374.831696,280.270203 
	C379.066040,285.838837 383.850159,289.746246 385.339478,294.653534 
	C387.519318,301.836273 393.483582,303.521179 398.473022,306.121887 
	C412.117920,313.234131 422.648560,322.564697 425.648834,338.019928 
	C428.042267,339.458588 432.442322,336.871277 431.825134,342.144379 
	C431.068268,348.610809 432.324554,350.659241 438.426697,353.528076 
	C440.133636,354.330536 442.368347,355.060913 441.890564,357.175049 
	C440.445557,363.568970 441.181610,370.107635 440.228455,376.482971 
	C439.551208,381.013031 436.437408,382.138672 432.568024,379.724274 
	C429.648987,377.902893 426.794861,375.997467 423.171448,374.759521 
	C427.783264,381.033081 430.999969,382.829712 440.519531,384.621796 
	C441.991547,382.789032 441.753815,380.557037 441.760132,378.437195 
	C441.773071,374.104919 441.726868,369.815735 443.032776,365.579224 
	C446.094940,355.645752 446.025635,355.622406 438.039734,349.301208 
	C434.580597,346.563019 432.951752,343.055389 433.016876,338.278534 
	C434.954956,338.652405 436.345764,338.920715 437.890350,339.218689 
	C438.146942,336.211639 435.135803,333.021149 438.820282,330.820831 
	C441.313934,329.331604 443.682465,330.687500 445.097900,332.377686 
	C449.175110,337.246246 452.771515,335.568604 456.554077,332.208801 
	C458.047180,330.882538 459.592102,329.603699 461.196716,328.415771 
	C469.130798,322.542267 479.660980,326.171906 481.888397,335.572998 
	C482.964081,340.113007 483.458954,344.606628 482.677612,349.384247 
	C481.532501,356.386047 479.173401,363.229584 479.557190,370.591949 
	C481.659241,371.373657 483.834625,372.182678 486.010010,372.991699 
	C488.729370,375.456970 491.325012,378.005554 492.804382,381.481171 
	C493.859222,383.959320 493.983368,386.282013 492.256042,388.533142 
	C490.376740,390.982361 488.182739,390.032867 485.941040,389.254852 
	C483.951569,388.564331 481.924561,387.981964 479.709564,387.943024 
	C484.901306,389.967499 490.015869,392.227386 495.303223,393.960114 
	C502.835175,396.428406 507.422058,401.033691 508.374573,409.162903 
	C508.691254,411.865723 509.112579,415.358124 513.665710,414.604828 
	C514.337280,409.501099 509.140808,406.293732 509.867096,401.120117 
	C513.150452,400.408997 515.725586,402.399841 518.536682,403.017029 
	C523.244568,404.050629 527.866943,405.483337 532.585754,406.454254 
	C535.149109,406.981628 537.972168,407.390900 539.822266,404.625092 
	C540.616516,403.437775 541.524963,402.408966 543.070312,403.237946 
	C544.589600,404.053040 544.927612,405.572540 544.672180,407.124420 
	C544.084534,410.693726 541.799438,413.431000 539.980103,416.405823 
	C537.349304,420.707581 533.273438,424.211121 532.103577,429.870605 
	C539.644958,431.782349 545.642822,436.006378 551.943604,439.601715 
	C556.792542,442.368622 561.947693,442.665070 567.326050,442.914703 
	C577.502808,443.387115 587.628601,444.554382 596.157654,450.980438 
	C603.413574,456.447205 604.498352,462.775848 599.507874,470.282684 
	C596.653809,474.575958 593.422180,478.624298 591.474365,483.467834 
	C590.235840,486.547852 587.530640,487.228485 583.795593,487.283386 
	C586.439026,489.708588 586.034058,491.559113 584.469727,493.809021 
	C577.544312,503.769470 570.610718,513.716919 565.802612,524.987122 
	C563.889832,529.470459 552.873474,529.564514 550.086487,525.353943 
	C549.085266,523.841370 548.450806,522.086670 547.641602,520.446106 
	C544.285461,513.642456 544.861145,514.308289 550.578674,509.352081 
	C558.052856,502.873047 566.137756,495.483032 567.264221,485.456665 
	C567.920166,479.618622 571.245300,477.095367 573.627625,473.185638 
	C575.113708,470.746735 577.972351,468.630371 576.598694,465.243378 
	C574.537354,464.888123 574.439148,466.044952 574.086975,466.936920 
	C572.904724,469.930664 570.740356,470.560394 568.083313,469.098328 
	C561.384155,465.412201 554.363281,466.233551 547.159119,466.904816 
	C534.229614,468.109558 521.654419,466.055176 509.646942,461.075745 
	C506.909210,459.940460 504.405304,461.159454 501.119995,460.747864 
	C497.407623,458.527435 493.806091,459.683411 490.594513,458.650665 
	C493.617310,461.623138 497.515442,460.400726 501.036865,460.967896 
	C504.218811,463.639038 504.256378,466.647461 502.618286,470.319244 
	C495.249176,486.837341 491.489410,504.419250 487.842316,522.011414 
	C486.961700,526.259155 486.832855,530.625671 487.929108,534.888611 
	C489.620422,541.465637 487.624817,545.414307 481.059509,546.046448 
	C466.038025,547.492798 453.039948,555.456421 438.299591,558.814026 
	C438.008636,558.997681 438.038513,558.971802 437.691101,559.069824 
	C432.278442,561.212891 428.049469,564.521179 423.971130,568.018127 
	C423.987732,568.004333 424.020050,567.975525 424.020050,567.975525 
	C415.952240,572.153198 415.574860,571.855164 415.678223,562.523987 
	C415.762665,554.901306 418.014038,549.449036 426.272614,546.821411 
	C434.609131,544.169067 442.874939,540.786987 449.636292,534.763123 
	C451.527039,533.078613 453.555237,533.104614 455.370789,535.062561 
	C456.731720,536.530212 458.159576,537.903381 460.430786,538.618591 
	C460.160248,536.400146 457.516815,536.478638 457.241882,534.858704 
	C461.409637,527.346863 462.219238,518.439941 467.924652,511.357483 
	C471.216278,515.899841 472.295044,520.607483 470.423645,525.926697 
	C474.060455,523.011963 475.474548,519.437561 472.633850,516.357056 
	C461.636230,504.430817 461.843628,490.043793 462.910522,475.483734 
	C463.309631,470.037140 461.677094,466.120819 456.975433,462.921722 
	C455.127197,464.873474 452.683990,464.552429 450.246674,463.974487 
	C445.996246,462.966583 441.547852,463.403168 438.104431,465.484589 
	C428.680328,471.181244 419.180481,469.405365 409.636139,466.796509 
	C397.453094,463.466461 385.195221,460.306641 373.574951,455.204865 
	C371.121185,454.127563 368.669983,453.349945 365.902161,453.333252 
	C361.414825,453.306213 359.362610,449.915833 357.144714,445.888733 
	C354.026459,436.245056 353.506744,426.018280 344.178375,420.437286 
	C349.370361,428.486237 351.862946,437.931702 357.020050,445.994995 
	C357.154114,452.621765 357.868225,459.304047 353.310272,465.095795 
	C351.785065,467.033752 353.585632,468.922729 354.576935,470.563416 
	C360.648895,480.613434 365.389679,491.237061 368.005402,502.693146 
	C369.772888,510.434143 371.846039,518.273743 368.102692,526.162598 
	C372.592987,527.794189 376.845276,529.202515 380.982178,530.893188 
	C383.497223,531.921082 385.213074,533.192444 384.753845,536.871582 
	C384.314331,540.392822 388.700073,542.234619 389.914612,545.507996 
	C389.640076,541.846375 386.225311,539.122314 387.125732,535.191406 
	C395.228027,533.722046 404.412384,538.471985 409.529541,544.024353 
	C414.282898,549.181885 416.344330,553.613586 413.371490,560.235596 
	C412.101135,563.065308 414.559906,566.370239 413.402527,570.410034 
	C404.248627,567.662415 401.741730,558.012390 394.472900,552.981384 
	C396.321411,559.275391 398.070953,565.082153 399.717072,570.917969 
	C400.302856,572.994812 400.779816,575.125000 401.042419,577.263245 
	C401.259003,579.026794 401.725220,581.140259 399.802216,582.268127 
	C397.972595,583.341248 396.605225,581.708008 395.435150,580.709351 
	C389.479156,575.625610 383.486145,570.741699 376.178223,567.514343 
	C371.195892,565.314148 371.149994,560.205200 371.904572,555.727905 
	C372.718933,550.896118 370.606506,548.771912 366.712341,546.587769 
	C359.365631,542.467163 351.572815,540.782166 343.310364,540.368530 
	C338.294800,540.117432 332.794281,540.946777 329.558411,535.522949 
	C321.383850,534.928772 315.793793,527.472473 307.430206,527.236938 
	C304.969635,527.167664 302.532227,526.343018 300.080353,525.885010 
	C296.213531,525.162720 293.761322,522.839294 293.017914,519.050598 
	C292.241180,515.091919 292.655457,511.370514 296.574280,508.956085 
	C299.079102,507.412781 300.866699,505.071960 301.879425,502.473328 
	C304.486694,495.783417 306.955109,489.083618 311.766449,483.544250 
	C312.757599,482.403137 313.301544,480.819244 312.208862,479.396576 
	C311.239441,478.134338 309.852722,478.522064 308.524231,478.863464 
	C305.735260,479.580139 302.678528,479.978577 300.115265,479.043152 
	C289.597321,475.204712 278.369781,473.997681 267.892609,470.170563 
	C259.108246,466.961761 252.115616,460.961456 245.637695,454.404205 
	C243.285019,452.022675 242.882263,448.770508 242.810989,445.560638 
	C242.574188,434.896576 242.473450,424.242920 244.402832,413.675903 
	C244.814941,411.418854 244.684753,409.062805 244.822678,406.399689 
	C231.513092,405.991211 218.637970,402.293793 205.550262,405.529388 
	C203.404648,406.059875 200.996628,406.784882 200.102585,408.766663 
	C196.375519,417.028412 189.428589,413.369812 183.503784,414.108032 
	C183.602020,407.310669 190.942398,397.341492 197.589203,395.290894 
	C210.468124,391.317688 223.776031,390.785950 237.129135,391.339966 
	C241.100372,391.504761 245.077347,392.151062 248.987259,392.909119 
	C250.908813,393.281677 252.016403,392.812836 253.316635,391.459991 
	C270.503632,373.578064 291.442841,362.825104 315.868164,358.770233 
	C325.054810,357.245117 334.199646,355.438263 343.522797,354.853973 
	C346.731812,354.652863 349.548920,355.245972 351.300415,358.208557 
	C352.520935,360.273041 354.519684,360.298553 356.501007,360.539124 
	C362.598694,361.279510 368.748779,361.765930 374.326538,364.762665 
	C376.751068,366.065247 378.069397,365.094818 378.522736,361.624481 
	C371.801208,362.826447 366.661774,358.556763 360.669891,357.161102 
	C351.411621,355.004608 344.726654,349.624725 339.167114,340.715210 
	C344.575623,341.139587 346.377228,346.204865 351.023132,346.341125 
	C349.692505,343.472778 346.128815,342.335083 346.080658,339.030914 
	C348.263855,336.454468 352.025269,340.867310 353.511047,336.480530 
	C360.123566,344.284882 367.798370,347.526764 377.437134,344.888580 
	C378.553497,344.583008 379.916992,344.529694 380.757751,345.461243 
	C383.848572,348.885773 388.325775,350.205170 391.878021,353.032288 
	C389.224579,344.368805 383.083069,339.360962 374.950256,336.439545 
	C373.401001,335.883026 372.225403,335.071777 372.007507,333.417267 
	C371.764313,331.570618 373.277161,330.989166 374.531219,330.117126 
	C376.595703,328.681519 379.322021,327.970367 381.069336,324.813385 
	C377.803040,324.858093 376.924622,327.300781 375.150543,328.178162 
	C373.237732,329.124176 371.370361,330.613586 369.105499,329.333099 
	C367.527924,328.441254 366.907562,326.859528 366.969543,325.081451 
	C367.071472,322.157745 369.335449,322.063141 371.462463,321.404327 
	C373.409271,320.801270 376.433105,319.932434 373.391083,316.913666 
	C372.886200,317.081757 372.496063,317.095215 372.292969,317.296906 
	C369.791870,319.780975 367.170654,323.056580 363.393707,320.230499 
	C359.241760,317.123779 362.018036,313.484741 364.082733,310.600433 
	C367.326874,306.068573 369.121216,300.854828 371.601929,295.977173 
	C373.806030,291.643311 376.534821,295.958618 379.567474,294.803589 
	C376.197876,287.831909 369.012756,282.560944 369.837067,273.793457 
	C369.980652,272.520874 371.223450,272.130585 372.284790,271.924896 
	C378.120178,270.793976 381.776306,268.344299 379.787292,261.485992 
	C379.066895,259.002014 381.246094,257.591644 382.963837,256.281281 
	C387.512695,252.811142 391.576996,248.950043 394.120758,243.688858 
	C394.864899,242.149704 395.340790,239.571823 397.710663,240.373672 
	C400.118286,241.188309 399.440155,243.737671 399.149078,245.640793 
	C397.672272,255.295990 401.303619,264.848145 398.625854,274.891571 
	C402.339722,274.372009 402.679077,272.368439 402.677734,270.401978 
	C402.675140,266.578888 402.923065,262.667267 402.220856,258.952271 
	C400.935150,252.150208 402.994202,245.374573 401.845886,238.581314 
	C401.518097,236.642151 402.573761,234.393555 404.737061,233.194473 
	C411.621216,244.181686 418.453613,255.064575 425.261871,265.962555 
	C428.170746,270.618774 426.743286,276.372803 429.117828,281.255005 
	C429.972717,283.012787 428.055542,283.889648 426.261353,284.472534 
	C423.214508,285.462402 419.569031,284.770447 416.954681,287.483246 
	C424.256012,291.137299 429.013306,290.447388 433.425385,284.993713 
	C436.350281,281.378235 438.328033,277.015015 441.904388,273.911407 
	C445.465546,270.820984 450.103455,269.586609 454.465271,267.053619 
	C452.351990,260.944794 448.799164,255.684036 445.728088,250.241913 
	C438.362122,237.189041 430.959351,224.154861 422.237030,211.908859 
	C419.262848,207.733185 415.882080,206.438293 411.116028,207.668610 
	C409.159821,208.173584 406.438080,209.500641 405.971771,206.094986 
	C405.558197,203.074493 408.536011,203.081604 410.229004,203.337433 
	C418.517456,204.589859 427.706207,201.794266 434.798431,208.677597 
	C436.836212,210.655350 438.483490,208.584869 440.125610,207.710938 
	C441.883423,206.775452 441.614838,205.335236 440.715607,203.887360 
	C439.490814,201.915359 439.420258,200.211151 441.610291,198.763138 
	C443.104004,197.775497 442.769653,196.091110 442.675995,194.627045 
	C442.097778,185.590195 447.738068,180.565979 454.603149,176.576492 
	C461.561768,172.532654 468.757965,172.746552 475.387604,177.277756 
	C481.923737,181.744965 486.308350,187.997971 487.858276,195.854172 
	C488.211304,197.643570 489.021698,198.391891 490.303925,199.205490 
	C491.826721,200.171722 493.518829,200.999039 494.360870,203.147125 
	C492.032410,206.398560 487.777771,204.316696 484.706543,206.352249 
	C485.185974,209.604141 484.910370,212.114227 481.364716,214.435287 
	C477.131439,217.206482 481.625885,221.355347 481.899078,224.896790 
	C482.103546,227.547073 484.634735,226.320724 486.337189,225.754227 
	C489.349274,224.751923 490.752686,226.149399 491.091766,229.021347 
	C491.264038,230.480362 491.349854,231.949615 491.494232,233.643158 
	C493.370392,233.109909 493.449249,231.733795 493.515076,230.509903 
	C493.658051,227.851562 495.405640,227.611816 497.370209,227.941528 
	C499.503693,228.299561 499.760834,229.896927 499.546570,231.749084 
	C499.220032,234.571579 497.425903,236.561737 495.842133,238.706619 
	C494.588409,240.404510 492.579498,241.598038 492.188995,243.924286 
	C496.112427,244.564590 496.093933,244.555511 498.847992,238.943909 
	C500.230804,236.126297 501.737579,233.378448 504.136627,231.001816 
	C506.630493,232.199753 506.783875,234.530121 507.134521,236.509109 
	C508.351501,243.376984 509.834229,250.244629 508.501251,257.301453 
	C508.324219,258.238617 508.517151,259.308472 508.771393,260.254333 
	C510.688354,267.386017 510.657104,274.341553 507.465698,281.186340 
	C506.411896,283.446503 506.320679,285.996613 506.257751,288.530884 
	C506.117126,294.195526 508.601746,300.138489 502.996307,305.871124 
	C518.907959,309.490479 533.367065,306.271362 547.757568,306.444031 
	C535.969177,304.719727 523.939880,306.229889 510.404114,303.535370 
	C531.153076,281.996155 550.759216,261.068634 575.588867,245.461151 
	C572.236572,238.595474 564.465088,235.910812 560.310425,228.535263 
	C575.374634,226.457001 582.249146,238.282959 591.211304,244.674988 
	C594.300659,243.356186 592.477234,240.911743 594.061279,239.064423 
	C598.182678,238.789642 601.604309,240.060120 603.153259,244.806183 
	C606.530029,245.013458 609.664124,243.694397 612.921204,243.129974 
	C617.835876,242.278366 621.896301,243.075943 625.424438,247.228790 
	C631.268921,254.108185 638.334167,259.773254 645.771484,264.846191 
	C649.833069,267.616577 649.652222,270.036835 646.516357,273.152893 
	C642.057251,277.583771 638.106384,282.753479 631.109497,283.326660 
	C634.686096,288.496887 631.787415,297.102356 625.453735,297.766235 
	C619.547729,298.385254 612.973938,300.849457 607.492554,295.873962 
	C606.732849,295.184357 606.395203,296.093048 605.919067,296.139923 
	C598.597229,296.860535 589.802856,293.266693 585.184998,304.538361 
	C600.795593,304.729431 615.905701,302.677429 631.553711,304.425232 
	C629.155029,298.359161 633.405090,294.099091 633.978638,289.075409 
	C634.198792,287.147522 636.392151,286.977631 637.547668,288.081818 
	C642.105408,292.437347 648.468262,291.492126 653.697449,293.931213 
	C652.051086,291.768951 650.188049,290.003143 647.544495,289.194092 
	C644.240784,288.183014 643.598999,285.957123 644.848022,282.946106 
	C644.975586,282.638580 645.086487,282.324097 645.206970,282.013580 
	C649.096008,271.991547 650.736389,271.515625 659.354248,277.781036 
	C663.954773,281.125793 668.080444,285.005371 672.079712,289.016418 
	C675.182251,292.127991 675.110535,292.199493 672.929993,296.103119 
	C673.464417,297.570984 675.023315,297.592773 676.078308,298.325867 
	C678.400269,299.939423 680.143005,301.263855 679.930115,304.998291 
	C679.629333,310.275146 678.653748,314.341705 672.698120,313.926422 
	C668.667786,313.645386 667.526001,315.877808 666.231812,318.565430 
	C665.180725,320.748413 664.859619,323.526947 661.964600,324.197174 
	C660.929016,324.436920 660.039001,323.665497 659.827332,322.534119 
	C659.330933,319.880066 660.254333,318.155914 662.337585,316.124298 
	C665.206543,313.326508 663.720825,309.315582 663.149414,305.455353 
	C661.576477,306.054138 660.289490,306.660706 658.938538,307.037689 
	C653.762268,308.482300 653.288818,309.508484 656.655273,313.369720 
	C658.923706,315.971497 657.476868,317.391541 655.293640,318.312256 
	C652.402710,319.531464 649.325317,320.308533 646.475220,321.228119 
	C644.944580,323.032684 647.938843,323.821259 647.062927,325.519073 
	C646.760803,325.644531 646.317383,326.003815 645.903381,325.972656 
	C642.922546,325.748199 639.947876,325.443268 636.970947,325.166809 
	C636.148071,325.090393 634.883850,324.642944 634.566650,325.009674 
	C629.477234,330.894257 622.792542,327.432587 616.862000,327.992615 
	C613.856873,328.276398 611.789734,329.100464 609.592529,331.295074 
	C599.458496,341.417145 588.974976,351.188080 578.751038,361.221802 
	C572.237915,367.613800 567.198669,375.492249 559.297729,380.493317 
	C558.890564,380.751038 558.619568,381.218597 558.269653,381.573151 
	C556.637878,383.226044 556.820679,387.560089 552.804260,385.700073 
	C549.033142,383.953674 547.338135,380.935364 549.162354,376.193054 
	C553.043701,374.877258 556.443726,378.676392 560.306641,374.305359 
	C572.429260,360.588043 586.760132,348.968140 598.627075,334.959595 
	C600.372620,332.899017 602.866028,331.358521 603.891052,328.071930 
	C597.154236,327.414459 590.648132,327.661285 584.713989,325.938232 
	C579.384949,324.390930 576.205872,326.128723 573.773132,329.900604 
	C564.292175,344.600464 555.514343,359.705902 549.011902,376.017517 
M361.017059,521.025208 
	C361.017059,521.025208 361.034241,521.053955 360.850281,520.377625 
	C356.117828,510.249878 344.676880,505.533722 341.011688,494.529724 
	C335.623810,496.986633 331.802734,499.755188 330.364807,505.166290 
	C327.804688,514.800415 328.310455,515.820923 338.131409,516.614380 
	C341.556458,516.891052 343.070557,517.968262 341.538391,521.390381 
	C349.530701,522.773132 357.073975,524.078186 365.006348,525.450623 
	C363.933563,523.138672 362.588623,521.954529 361.017059,521.025208 
M480.260162,207.047470 
	C479.381348,205.116013 477.664764,204.261246 475.798187,204.619583 
	C473.480225,205.064606 474.317230,207.230927 474.258820,208.774826 
	C474.199982,210.330780 474.005615,211.996246 472.811157,212.894913 
	C469.957214,215.042099 466.995209,216.829041 464.977661,220.093536 
	C463.862915,221.897232 461.427856,220.685516 459.666992,219.411850 
	C457.434998,217.797409 457.747253,213.303329 454.148163,213.707306 
	C450.771393,214.086349 450.942993,218.487152 448.515228,220.256104 
	C448.319977,220.398392 448.354034,220.855438 448.283325,221.158569 
	C458.983521,229.800140 476.550476,222.454102 480.260162,207.047470 
M604.187134,270.308075 
	C603.976990,268.527100 603.278076,266.732727 604.276978,265.015472 
	C605.677673,263.882202 608.058899,266.507782 608.968628,263.642029 
	C609.439758,262.157867 608.537720,261.596191 607.636047,260.804230 
	C602.669250,256.441833 596.544128,254.632721 590.077087,252.265060 
	C602.202698,262.494873 601.855164,277.284454 606.706848,290.048279 
	C605.930054,283.750519 605.153259,277.452759 604.187134,270.308075 
M528.963684,383.343048 
	C529.785461,384.069885 530.322510,385.344513 532.054993,384.743439 
	C533.012756,382.684662 532.789429,380.503326 532.122009,377.556274 
	C529.064331,380.502777 527.464600,378.276337 525.702148,376.406738 
	C521.938965,372.414825 518.229614,368.366425 513.876465,364.980011 
	C510.890656,362.657318 507.783173,363.224243 506.080750,366.021179 
	C504.000000,369.439728 507.779388,369.953827 509.785858,370.903229 
	C516.539551,374.098907 523.667664,376.663147 528.963684,383.343048 
M615.278320,322.243073 
	C604.998840,320.855042 594.524597,320.391907 585.224915,315.240967 
	C582.616821,320.258575 582.754578,321.056641 587.059937,322.098511 
	C591.385315,323.145233 595.809448,323.975647 600.237366,324.362640 
	C607.220825,324.972931 614.242859,325.111969 622.261963,324.209045 
	C619.692322,322.489532 617.898743,322.382263 615.278320,322.243073 
M406.182861,369.413086 
	C409.487732,371.181915 412.820801,372.764862 417.030884,371.334137 
	C415.206299,368.239838 411.064819,368.034027 410.350555,364.568512 
	C411.749939,362.909302 414.329041,363.737885 415.697540,361.522217 
	C410.610474,360.521332 405.735626,359.562195 400.596252,358.550995 
	C400.134338,363.484802 401.839264,366.734711 406.182861,369.413086 
M446.074646,434.249969 
	C445.486481,435.558502 445.572144,436.804321 447.302185,436.552704 
	C454.057495,435.570312 460.413422,436.108032 465.985229,440.868866 
	C462.873596,437.467590 459.664429,434.431274 456.168335,431.772217 
	C451.176788,427.975830 449.921265,428.321655 446.074646,434.249969 
M390.584625,385.256866 
	C395.044220,385.726990 399.577728,386.635925 404.106903,383.360291 
	C400.789673,380.196075 397.295776,379.397491 393.703735,379.375092 
	C390.195923,379.353180 388.336426,381.004425 390.584625,385.256866 
M442.674103,426.301331 
	C444.015900,424.227875 444.105957,422.209045 442.633026,419.898712 
	C440.658173,421.897827 439.640411,424.258667 436.815063,424.798401 
	C434.860779,425.171753 432.196228,425.523956 432.177612,428.377930 
	C432.167542,429.928925 433.552368,430.986084 435.019104,431.533722 
	C437.499603,432.459991 439.121033,431.048218 440.544891,429.301117 
	C441.170959,428.532928 441.703339,427.688385 442.674103,426.301331 
M451.553314,453.752502 
	C452.689270,455.720947 453.195221,458.118805 455.665375,459.657043 
	C456.252136,456.947693 457.782745,454.271820 455.069092,452.270081 
	C451.696381,449.782196 450.118347,446.652191 450.570709,442.078033 
	C447.525208,443.300049 444.457458,443.126862 441.783081,446.225861 
	C446.705597,446.853363 451.080322,447.448944 451.553314,453.752502 
M466.451294,199.596741 
	C465.741699,200.246384 464.716766,200.708328 465.019470,201.970108 
	C474.160645,202.625473 479.539886,200.639420 479.467133,196.542358 
	C475.002014,195.962570 470.935333,197.175140 466.451294,199.596741 
M620.499390,314.228180 
	C616.694824,314.228180 612.890198,314.228180 609.085632,314.228180 
	C609.105408,314.660248 609.125122,315.092346 609.144897,315.524414 
	C617.625977,315.395905 626.227051,318.102448 635.066589,314.170471 
	C630.180542,314.170471 625.827148,314.170471 620.499390,314.228180 
M621.141357,260.498596 
	C619.389648,259.349579 620.824707,256.948090 619.172241,255.558609 
	C616.937622,255.473724 614.588013,254.568359 611.761475,255.802383 
	C612.935303,257.289520 613.606018,258.809784 614.764587,259.458221 
	C616.763855,260.577148 618.887939,262.030518 621.141357,260.498596 
M454.387238,347.793823 
	C453.455048,347.624969 452.520752,347.081726 451.382111,347.948517 
	C453.570343,351.684601 460.193604,350.157043 460.363586,356.116516 
	C461.823883,350.916718 459.817261,348.429657 454.387238,347.793823 
M461.007812,392.708282 
	C464.410614,391.523773 466.123383,388.359100 469.171967,386.296448 
	C463.806396,385.329803 461.049316,387.219421 461.007812,392.708282 
M639.073242,304.127014 
	C641.200623,301.376892 640.957458,298.619781 639.088196,295.844025 
	C638.929565,298.667999 635.554871,301.234741 639.073242,304.127014 
M495.805786,311.433899 
	C497.056641,314.400665 498.010712,314.618927 503.034180,312.918213 
	C501.016174,310.979797 498.680389,310.905792 495.805786,311.433899 
M467.536316,370.956665 
	C464.472351,370.293091 462.309540,367.996735 459.129089,365.570190 
	C461.710846,370.706604 465.347168,372.686493 467.536316,370.956665 
M622.803040,308.547699 
	C624.759888,308.547699 626.716736,308.547699 629.320068,308.547699 
	C624.604248,307.341492 620.491943,306.722931 615.708313,307.458923 
	C618.167236,307.852386 620.082947,308.158936 622.803040,308.547699 
M451.197418,403.998749 
	C447.745697,404.518829 447.701050,404.585114 448.050293,408.760376 
	C449.736572,407.789917 450.847443,406.436584 451.197418,403.998749 
z"/>
<path fill="#000000" opacity="1.000000" stroke="none" 
	d="
M344.005310,219.019394 
	C336.526154,219.309494 330.842560,215.414581 324.451385,211.752380 
	C327.432495,209.012009 329.341309,211.593658 331.599060,211.033493 
	C327.072968,205.140701 319.977539,204.306335 313.736877,202.951263 
	C308.000031,201.705566 305.546875,199.426178 306.204529,193.789795 
	C302.932098,192.761276 299.783264,192.172348 297.644806,189.423874 
	C297.419952,192.310516 299.552490,193.487793 301.103546,195.032028 
	C302.068542,195.992828 303.157623,196.995789 302.258728,198.459351 
	C301.399780,199.857803 299.905579,199.676041 298.662567,199.170685 
	C290.742737,195.951050 286.278076,185.763275 290.379547,178.212540 
	C295.402863,168.964630 299.082520,167.866135 312.202362,171.338394 
	C315.824982,172.297150 318.788940,172.190598 322.148651,170.495544 
	C354.265625,154.291855 386.452393,138.226532 418.613373,122.110115 
	C455.244904,103.753456 491.878387,85.400673 528.488708,67.001770 
	C532.902405,64.783600 537.177002,62.288612 541.931396,59.695400 
	C538.647583,54.617939 533.740662,52.465912 530.074158,48.984135 
	C528.613525,47.597065 525.820251,46.760937 527.818665,43.943298 
	C529.902100,41.005756 531.935852,42.397873 534.116638,44.070213 
	C545.350525,52.684925 556.651917,61.211571 567.910400,69.794266 
	C569.423584,70.947769 571.731995,71.925674 569.557129,74.434891 
	C567.713684,76.561630 565.878296,76.131996 563.915527,74.538490 
	C560.553162,71.808701 556.950806,69.349312 553.773804,66.423859 
	C550.825806,63.709255 548.298828,63.914921 544.857971,65.651909 
	C508.736237,83.886543 472.531189,101.956192 436.347809,120.068665 
	C402.257721,137.133286 368.193481,154.249924 334.049744,171.206558 
	C327.865936,174.277618 322.331970,178.767532 314.980164,179.488022 
	C312.079163,179.772324 312.070496,185.121948 315.226013,187.153427 
	C322.522095,191.850571 330.027679,196.418686 339.010254,196.841858 
	C348.658539,197.296371 357.935150,198.357422 364.895538,206.154175 
	C366.078125,207.478867 367.746674,207.762192 369.484894,207.687515 
	C375.306122,207.437378 381.133026,207.090210 386.769989,205.541153 
	C391.311554,204.293137 395.685944,205.724457 400.085602,206.134186 
	C402.390228,206.348785 403.232666,208.928116 403.271484,211.233734 
	C403.375854,217.432449 402.050446,223.474335 401.072479,229.547531 
	C400.692902,231.904663 399.017700,232.102524 396.911163,231.857788 
	C393.280975,231.436050 389.617737,231.156921 385.964966,231.114838 
	C382.813629,231.078537 380.071411,231.205994 379.256287,227.022736 
	C378.784088,224.599457 376.410400,225.589584 374.610535,225.740631 
	C363.973694,226.633209 354.007812,223.466125 344.019287,220.505920 
	C343.894653,220.468979 343.929626,219.893600 344.344238,219.325775 
	C349.656799,219.839157 354.525848,219.833115 360.006683,219.559616 
	C357.584656,215.475571 356.125916,211.398300 351.138519,207.910446 
	C352.196991,214.916275 347.374268,216.370026 344.005310,219.019394 
M388.900177,220.873383 
	C386.237091,218.948013 384.534393,221.287506 381.317078,222.242020 
	C384.778564,223.311569 386.826080,223.091400 388.900177,220.873383 
z"/>
<path fill="#000000" opacity="1.000000" stroke="none" 
	d="
M732.818726,775.421875 
	C730.840515,777.666931 730.461182,779.095703 732.657959,781.506836 
	C741.010925,790.674500 737.775940,803.710449 726.258240,808.389221 
	C722.216858,810.030945 717.941528,810.895874 713.618347,810.975586 
	C704.305664,811.147339 694.987244,810.985229 685.672241,811.070435 
	C682.143372,811.102661 680.603638,809.763428 680.633057,806.049744 
	C680.767639,789.082581 680.789490,772.113464 680.674988,755.146179 
	C680.649719,751.402100 682.298828,750.003418 685.730835,750.089783 
	C696.699707,750.365723 707.711243,750.152527 718.625793,751.077698 
	C732.272156,752.234436 738.950317,763.914490 732.818726,775.421875 
M690.381042,799.000305 
	C690.433594,800.784241 691.332031,801.867981 693.130371,801.839233 
	C701.909729,801.699097 710.748840,802.755249 719.441223,800.785645 
	C723.596375,799.844116 727.266296,797.677002 727.381287,793.073547 
	C727.491089,788.680359 723.917847,786.635681 720.106750,785.291687 
	C714.924866,783.464111 709.567627,784.369812 704.295776,784.318787 
	C690.308167,784.183533 690.307251,784.276917 690.381042,799.000305 
M690.350281,769.328979 
	C690.584167,771.483154 689.491333,774.673218 693.021545,774.758728 
	C701.483154,774.963928 710.008545,775.880493 718.395447,774.138489 
	C721.936707,773.402893 725.097595,771.690247 724.950745,767.210205 
	C724.810303,762.925903 721.949890,761.130554 718.280640,760.297302 
	C710.218933,758.466553 702.043396,759.571289 693.916382,759.561768 
	C691.613220,759.559082 690.261353,760.917236 690.358521,763.428711 
	C690.422852,765.090820 690.357544,766.758057 690.350281,769.328979 
z"/>
<path fill="#000000" opacity="1.000000" stroke="none" 
	d="
M69.942284,648.697876 
	C78.099236,650.383484 83.887108,654.113220 85.741661,662.437805 
	C87.011765,668.138855 84.282745,672.377930 80.886192,676.303528 
	C90.812271,686.881470 90.157173,698.894897 79.537331,704.607666 
	C75.834694,706.599365 71.827965,708.057129 67.656342,708.152771 
	C57.000324,708.396973 46.335720,708.248352 35.674904,708.314087 
	C32.948524,708.330872 31.745117,707.110291 31.743999,704.404663 
	C31.736778,686.913086 31.707912,669.421448 31.641075,651.929993 
	C31.630541,649.173584 32.987164,647.879578 35.593498,647.964844 
	C46.899796,648.334412 58.235455,647.223145 69.942284,648.697876 
M77.414207,692.692078 
	C77.979500,686.743103 76.314697,684.366638 70.402145,682.615540 
	C65.207047,681.077026 59.873867,681.381287 54.561768,681.380737 
	C40.020157,681.379211 40.066475,681.374817 41.349869,695.989441 
	C41.550095,698.269592 42.235283,699.252441 44.641388,699.189758 
	C52.121777,698.994934 59.612427,699.110779 67.086929,698.806824 
	C71.164803,698.640991 74.994415,697.461060 77.414207,692.692078 
M51.572796,672.657898 
	C57.834206,672.275696 64.204117,673.628845 70.353531,671.409302 
	C73.419609,670.302795 75.535385,668.470337 75.730103,665.003601 
	C75.922958,661.570007 73.545540,659.995544 70.966736,658.684937 
	C69.802040,658.092957 68.475044,657.504089 67.209984,657.477844 
	C59.739212,657.322876 52.265030,657.325439 44.791916,657.295471 
	C43.168259,657.288940 42.004967,657.822632 41.466255,659.617554 
	C38.783161,668.557312 41.623871,672.661682 51.572796,672.657898 
z"/>
<path fill="#000000" opacity="1.000000" stroke="none" 
	d="
M820.005981,687.286804 
	C814.602539,682.624695 807.921570,683.029358 801.908020,681.384705 
	C796.946350,680.027649 791.744995,679.572632 786.926880,677.622986 
	C779.321106,674.545471 776.187561,670.027466 776.345093,662.456726 
	C776.489258,655.522461 780.456055,650.144592 788.088379,648.159058 
	C797.733459,645.649841 807.590027,645.421143 817.135010,648.767883 
	C826.237183,651.959290 830.135254,658.450439 829.644043,668.493652 
	C822.439941,670.571594 821.457825,670.119629 819.393982,663.465576 
	C818.321045,660.006348 816.184692,657.611511 812.693604,656.672607 
	C806.140869,654.910400 799.520813,654.702881 792.964478,656.594849 
	C789.628540,657.557617 786.523438,659.331787 786.452698,663.239441 
	C786.380859,667.205444 789.405640,669.086609 792.846252,669.858887 
	C799.167603,671.277710 805.551880,672.416748 811.910828,673.667969 
	C816.011658,674.474915 820.013245,675.549011 823.674438,677.669373 
	C833.744568,683.501587 834.490723,698.059509 824.305969,703.637573 
	C810.922302,710.967712 796.758057,710.683655 783.119629,703.905579 
	C776.572998,700.651978 774.264404,694.294495 773.913635,687.218323 
	C773.758118,684.079651 775.122314,682.546692 778.346558,682.735168 
	C781.077698,682.894836 783.994873,682.046021 784.368469,686.570007 
	C785.026550,694.540283 788.918030,697.975342 796.742737,698.895752 
	C802.750305,699.602478 808.709351,699.834351 814.543579,698.069153 
	C820.594788,696.238342 821.729614,693.977783 820.005981,687.286804 
z"/>
<path fill="#000000" opacity="1.000000" stroke="none" 
	d="
M309.604370,661.013611 
	C309.953033,646.726562 307.146393,647.849487 322.471283,647.929626 
	C330.128540,647.969727 337.814972,647.553528 345.437103,648.081543 
	C359.326080,649.043701 366.204895,657.756897 363.302887,669.829407 
	C362.453400,673.363464 359.987244,675.850830 357.817566,678.714355 
	C365.703125,686.728088 362.712708,696.625549 362.718384,705.876831 
	C362.720428,709.180969 359.192963,708.013916 357.053009,708.207520 
	C354.727203,708.418030 353.114166,707.492920 353.067627,704.912903 
	C352.995636,700.918030 352.868652,696.916809 353.013916,692.927307 
	C353.179413,688.381042 351.053406,685.667419 346.819916,684.514954 
	C338.629395,682.285522 330.269043,683.616089 321.983276,683.522095 
	C319.544800,683.494324 319.340820,685.611267 319.336975,687.549927 
	C319.326141,693.044739 319.179901,698.542969 319.331635,704.033142 
	C319.438232,707.890564 317.180908,708.267212 314.192444,708.310547 
	C311.104645,708.355286 309.614532,707.277710 309.630951,703.970398 
	C309.701019,689.817688 309.631165,675.664246 309.604370,661.013611 
M340.307343,674.012939 
	C341.967133,673.900452 343.652374,673.933533 345.282135,673.648987 
	C350.881775,672.671204 354.004395,669.426208 353.839203,664.924500 
	C353.679169,660.563416 350.164703,657.599915 344.403290,657.294556 
	C339.918213,657.056885 335.416168,657.020386 330.923523,657.068481 
	C317.287354,657.214478 319.643616,655.304810 319.288177,669.258240 
	C319.200897,672.683167 320.413422,674.130432 323.870453,674.040771 
	C329.028351,673.907104 334.192291,674.005676 340.307343,674.012939 
z"/>
<path fill="#000000" opacity="1.000000" stroke="none" 
	d="
M376.514435,809.953125 
	C368.558594,811.811279 360.951660,812.067261 353.381531,810.346558 
	C338.472961,806.957947 330.018402,796.253540 329.999786,780.983337 
	C329.981598,766.049438 338.364960,755.255127 353.105194,751.934387 
	C361.987030,749.933411 370.990692,749.897095 379.665009,753.180054 
	C392.898560,758.188477 398.749390,767.864929 398.240234,783.443542 
	C397.830933,795.966309 390.057526,805.577942 376.514435,809.953125 
M369.678436,802.174927 
	C381.891113,799.932312 388.963318,791.743652 388.152618,780.784119 
	C387.145264,767.165527 380.173828,760.516174 366.403412,760.140442 
	C363.582306,760.063477 360.738220,760.082764 357.931976,760.346985 
	C349.546875,761.136475 341.875854,768.010925 340.465881,775.826904 
	C338.569519,786.339172 342.841797,796.379395 351.260468,799.915833 
	C356.805084,802.244873 362.760406,803.161743 369.678436,802.174927 
z"/>
<path fill="#000000" opacity="1.000000" stroke="none" 
	d="
M192.748779,800.136719 
	C186.626236,791.175781 185.491592,781.715576 187.921219,771.694031 
	C189.171555,766.536743 191.726624,762.151917 195.857498,758.728210 
	C207.296173,749.247375 229.514359,747.871643 242.047806,755.889038 
	C258.771393,766.586792 259.341797,793.082825 243.448090,805.271118 
	C232.105103,813.969727 202.674225,814.282532 192.748779,800.136719 
M197.544861,787.769714 
	C200.338196,795.949463 206.063126,800.490967 214.552338,801.981567 
	C218.912613,802.747192 223.168839,802.470947 227.426239,801.766113 
	C237.977112,800.019531 244.131485,793.251038 244.725845,782.953308 
	C245.399536,771.281555 240.372757,763.778992 229.700577,760.792480 
	C226.147842,759.798340 222.449875,760.016113 218.791046,760.145142 
	C202.502502,760.719543 194.406021,770.867737 197.544861,787.769714 
z"/>
<path fill="#000000" opacity="1.000000" stroke="none" 
	d="
M260.004517,647.939453 
	C269.662415,647.937744 278.821686,647.978699 287.980469,647.928345 
	C291.185791,647.910767 293.386108,648.439087 293.386993,652.523560 
	C293.387878,656.648010 291.128571,657.081787 287.947815,657.064514 
	C278.289215,657.012024 268.626465,657.209167 258.972961,656.982361 
	C254.765152,656.883423 252.989807,658.042542 253.084213,662.584290 
	C253.279800,671.993896 253.058517,672.201721 262.542908,672.493164 
	C269.020691,672.692200 275.518402,672.133057 282.008240,672.096313 
	C285.076172,672.078979 288.385620,671.583496 288.477448,676.653381 
	C288.567780,681.638245 285.634827,681.363525 282.331268,681.346863 
	C274.171387,681.305786 266.009186,681.448975 257.851959,681.297852 
	C254.437881,681.234619 253.070221,682.433594 253.135239,685.921570 
	C253.422073,701.310181 251.253311,698.776672 265.441864,698.975037 
	C273.267578,699.084473 281.095947,699.040833 288.922882,699.005676 
	C291.914215,698.992249 294.120087,699.489502 294.134064,703.302673 
	C294.147491,706.939026 292.728668,708.335938 289.082092,708.306030 
	C275.260620,708.192566 261.436981,708.196472 247.615585,708.318176 
	C244.101700,708.349182 242.932556,706.883972 242.949570,703.545105 
	C243.035309,686.725891 243.056427,669.905884 242.980164,653.086731 
	C242.962204,649.125793 244.830994,647.783264 248.515152,647.914368 
	C252.174408,648.044556 255.841858,647.945007 260.004517,647.939453 
z"/>
<path fill="#000000" opacity="1.000000" stroke="none" 
	d="
M122.166061,672.645630 
	C130.466934,672.654297 138.292145,672.751770 146.114090,672.633545 
	C149.335190,672.584839 151.108475,673.448303 151.137985,677.067932 
	C151.168610,680.823792 149.144226,681.441040 146.046295,681.406494 
	C137.721939,681.313599 129.391068,681.534424 121.072609,681.292664 
	C116.883080,681.170959 115.055740,682.307312 115.208633,686.877319 
	C115.673347,700.768677 113.063721,698.861633 127.434029,698.990967 
	C135.425705,699.062805 143.420898,699.092834 151.410049,698.926819 
	C154.854370,698.855286 156.196960,700.116333 156.135284,703.587708 
	C156.076263,706.909973 154.955688,708.385315 151.440567,708.355530 
	C137.454819,708.236816 123.467255,708.266785 109.480911,708.341858 
	C106.580521,708.357422 105.491364,707.517090 105.410713,704.331360 
	C104.989784,687.705139 106.246231,671.070312 105.109322,654.454895 
	C104.801125,649.950745 106.325279,647.789246 111.308670,647.873169 
	C124.290977,648.091797 137.280426,647.893433 150.266983,647.847351 
	C153.045807,647.837524 155.624283,647.650879 155.461731,651.853577 
	C155.323273,655.432983 154.546234,657.403137 150.384964,657.317444 
	C140.398895,657.111877 130.403671,657.375977 120.415901,657.216003 
	C116.561661,657.154236 114.802879,658.525513 115.175087,662.442200 
	C115.300560,663.762573 115.371674,665.131226 115.170609,666.431885 
	C114.356354,671.699585 116.840096,673.383362 122.166061,672.645630 
z"/>
<path fill="#000000" opacity="1.000000" stroke="none" 
	d="
M555.147644,670.029419 
	C555.618713,672.181641 557.025757,672.108704 558.367065,672.107239 
	C568.185364,672.096313 578.005676,671.951843 587.820923,672.116028 
	C591.875000,672.183899 593.012695,670.424927 592.849854,666.685852 
	C592.632568,661.697815 592.949768,656.686951 592.744019,651.697937 
	C592.573303,647.559326 595.189636,647.193909 598.214661,647.020752 
	C601.458191,646.835083 603.166992,648.007996 603.148560,651.575195 
	C603.058228,669.065369 603.036072,686.556458 603.128113,704.046509 
	C603.148010,707.829102 601.150330,708.341125 598.059021,708.367981 
	C594.746704,708.396729 592.614502,707.794434 592.750122,703.770508 
	C592.946411,697.947144 592.590210,692.103088 592.846008,686.284424 
	C593.022766,682.263794 591.426270,681.088806 587.587952,681.179077 
	C578.430786,681.394531 569.263306,681.391724 560.104736,681.221313 
	C556.470337,681.153748 555.015686,682.314880 555.146118,686.082520 
	C555.353455,692.070557 555.008667,698.076111 555.137451,704.069031 
	C555.219177,707.873535 553.120422,708.389160 550.044739,708.354370 
	C547.121155,708.321289 544.772400,708.196960 544.791870,704.265259 
	C544.878906,686.608582 544.872559,668.951111 544.816895,651.294189 
	C544.804688,647.422302 547.278198,647.177979 550.141602,647.059387 
	C553.404175,646.924316 555.166382,648.128052 555.114868,651.643738 
	C555.026917,657.638977 555.095642,663.636475 555.147644,670.029419 
z"/>
<path fill="#000000" opacity="1.000000" stroke="none" 
	d="
M115.782906,803.878662 
	C115.779976,787.752136 115.941933,772.107666 115.677406,756.470459 
	C115.599709,751.877625 117.148422,750.369324 121.598892,750.243164 
	C132.253281,749.941040 142.907181,750.047791 153.490967,751.039185 
	C165.310562,752.146423 170.996506,759.081787 170.277451,770.351196 
	C169.728470,778.955200 162.371536,785.437012 151.518356,786.282837 
	C144.901321,786.798523 138.203094,787.029114 131.592102,786.601990 
	C127.109039,786.312317 126.015770,787.907471 126.201393,791.887817 
	C126.394974,796.038269 126.037384,800.216309 126.270340,804.362671 
	C126.513611,808.692505 125.664345,811.236450 120.421982,811.173706 
	C114.962967,811.108459 115.869858,807.606018 115.782906,803.878662 
M131.829102,759.382568 
	C127.386383,758.787354 125.845848,760.874023 126.192337,765.130920 
	C126.434074,768.100891 126.282898,771.106812 126.231255,774.095337 
	C126.188942,776.544067 127.218208,777.821716 129.761749,777.793152 
	C136.237213,777.720520 142.731430,777.973267 149.183853,777.560120 
	C156.033615,777.121521 160.794357,773.071045 160.606995,768.602356 
	C160.405136,763.787659 155.916870,760.164856 149.199783,759.451782 
	C148.048492,759.329529 146.877197,759.379578 145.715118,759.378174 
	C141.396927,759.372864 137.078735,759.379456 131.829102,759.382568 
z"/>
<path fill="#000000" opacity="1.000000" stroke="none" 
	d="
M622.130737,810.366089 
	C609.587952,806.276428 604.853149,799.785278 604.814697,787.021729 
	C604.783142,776.528015 604.884827,766.033386 604.768799,755.540894 
	C604.727844,751.836121 605.937439,749.988037 609.935791,750.025757 
	C613.733215,750.061707 615.317627,751.494812 615.265076,755.381653 
	C615.121094,766.039490 615.158752,776.700928 615.236328,787.360168 
	C615.302246,796.410767 618.327881,799.847046 627.011353,801.948120 
	C632.088257,803.176514 637.011780,802.453430 641.822266,801.290955 
	C647.923035,799.816711 650.893982,795.009155 650.934509,787.473877 
	C650.990906,776.981018 650.888184,766.487427 650.899414,755.994141 
	C650.905029,750.725647 652.400574,749.525208 657.485107,750.061951 
	C660.010742,750.328552 661.059326,751.630371 661.051819,753.944824 
	C661.011536,766.432617 661.467957,778.953674 660.695862,791.397705 
	C660.027771,802.164307 654.002808,808.223877 643.360596,810.514099 
	C636.471313,811.996765 629.480957,811.796692 622.130737,810.366089 
z"/>
<path fill="#000000" opacity="1.000000" stroke="none" 
	d="
M471.895447,803.117493 
	C462.511200,792.903870 460.586334,781.391357 465.303680,769.018982 
	C469.638885,757.648987 478.808716,752.234802 490.531097,750.509338 
	C502.130035,748.802124 512.802917,750.611450 521.855774,758.531433 
	C523.632507,760.085876 527.044800,761.529053 524.666992,764.843323 
	C522.045593,768.497070 518.293091,768.623718 515.108887,765.553650 
	C503.007660,753.886658 479.852692,757.726257 474.627167,772.720276 
	C469.149078,788.438843 478.236359,804.114990 499.048279,802.332031 
	C505.271423,801.798950 510.839325,799.718750 515.556580,795.017578 
	C519.506104,791.081543 522.068542,795.781433 525.088135,797.438293 
	C516.426514,813.950500 485.483246,815.905823 471.895447,803.117493 
z"/>
<path fill="#000000" opacity="1.000000" stroke="none" 
	d="
M192.166504,680.918457 
	C194.092316,684.817383 195.843643,688.386963 197.634979,692.038086 
	C199.903641,691.253906 200.091141,689.202759 200.815140,687.674561 
	C206.304367,676.088440 211.692062,664.454285 217.117645,652.838013 
	C219.661926,647.390747 222.583511,646.470520 229.346573,649.406494 
	C226.423447,655.854248 223.561737,662.337158 220.558609,668.753845 
	C214.983551,680.665955 209.301178,692.527954 203.724487,704.439331 
	C202.663971,706.704468 201.488449,708.425659 198.589996,708.280579 
	C196.343582,708.168213 194.379974,708.109131 193.202179,705.652344 
	C184.492477,687.484680 175.700043,669.356689 166.962555,651.202271 
	C166.695282,650.646912 166.743347,649.939880 166.651794,649.351135 
	C172.638916,646.445007 175.736282,647.266907 178.457840,652.736755 
	C183.055786,661.977783 187.489334,671.300659 192.166504,680.918457 
z"/>
<path fill="#000000" opacity="1.000000" stroke="none" 
	d="
M481.344421,658.343994 
	C475.389923,664.420410 469.740662,670.305725 463.903137,675.997864 
	C461.344177,678.492981 460.075134,681.169067 460.222382,684.813538 
	C460.477539,691.130005 460.170258,697.470703 460.477356,703.782837 
	C460.662689,707.592529 458.891235,708.237061 455.685791,708.157837 
	C452.523010,708.079712 450.248718,707.942322 450.497162,703.623718 
	C450.869019,697.160522 450.817535,690.672729 450.155243,684.179260 
	C449.811035,680.804199 448.745880,678.242004 446.359650,675.876343 
	C439.269806,668.847595 432.312500,661.684387 425.360687,654.518066 
	C423.783783,652.892517 421.707306,651.569458 421.303986,649.052124 
	C426.405182,646.553833 431.554535,647.219910 435.326172,650.867371 
	C441.893280,657.218201 447.607788,664.429077 455.118958,670.614075 
	C459.334564,667.655029 462.535767,663.613770 466.189636,660.096985 
	C468.826721,657.558777 471.626282,655.104004 473.818481,652.207275 
	C477.994110,646.689514 483.316895,647.283325 489.544037,648.450195 
	C487.911194,652.904480 484.046387,654.944153 481.344421,658.343994 
z"/>
<path fill="#000000" opacity="1.000000" stroke="none" 
	d="
M654.105896,649.564331 
	C656.263123,645.758301 659.470215,646.755676 662.196472,647.486389 
	C664.721924,648.163208 663.861023,650.814270 663.861938,652.690674 
	C663.868591,666.008484 663.909790,679.328369 663.675354,692.642944 
	C663.593994,697.263428 665.002014,699.271179 669.946045,699.085876 
	C678.758850,698.755615 687.593018,699.045776 696.415405,698.900452 
	C699.974548,698.841858 701.480713,700.023071 701.426147,703.813232 
	C701.374146,707.431580 699.842224,708.328186 696.565735,708.311523 
	C683.746094,708.246277 670.923462,708.240540 658.106873,708.479553 
	C654.518372,708.546448 653.915527,706.875488 653.926331,703.948669 
	C653.992737,685.967651 653.997314,667.986511 654.105896,649.564331 
z"/>
<path fill="#000000" opacity="1.000000" stroke="none" 
	d="
M726.166748,691.843872 
	C726.290344,698.904663 726.290283,698.927856 732.875549,698.940735 
	C741.192383,698.957031 749.511414,699.036926 757.825317,698.876587 
	C761.808044,698.799744 764.103149,699.819641 764.102783,704.389954 
	C764.102478,709.083801 760.919678,708.220581 758.243530,708.231445 
	C745.768433,708.282104 733.292786,708.214722 720.817749,708.279541 
	C718.074524,708.293823 716.632874,707.729797 716.530212,704.446777 
	C715.989441,687.165222 715.805298,669.883484 715.828979,652.595337 
	C715.833679,649.183350 716.215881,646.782104 720.608276,646.910095 
	C724.522156,647.024048 726.285522,648.209839 726.222534,652.444702 
	C726.029724,665.416077 726.161438,678.392334 726.166748,691.843872 
z"/>
<path fill="#000000" opacity="1.000000" stroke="none" 
	d="
M389.269531,647.757690 
	C392.989288,648.595764 392.214294,651.320801 392.224854,653.501526 
	C392.289246,666.831360 392.384308,680.163635 392.180817,693.490723 
	C392.117554,697.630493 393.530121,699.089111 397.639954,698.991760 
	C406.632935,698.778442 415.634277,698.940857 424.631866,698.888855 
	C427.382172,698.872986 429.526367,699.026123 429.414032,702.811829 
	C429.313965,706.185059 428.589630,708.156494 424.702911,708.136230 
	C412.040894,708.070007 399.377747,708.160278 386.715454,708.249023 
	C383.874634,708.268982 382.519958,707.384949 382.555908,704.189880 
	C382.743073,687.549622 382.709137,670.909851 382.134003,654.271118 
	C381.907440,647.716064 382.448639,647.441101 389.269531,647.757690 
z"/>
<path fill="#000000" opacity="1.000000" stroke="none" 
	d="
M543.669556,763.018555 
	C543.671875,760.357544 543.803162,758.183472 543.648621,756.029968 
	C543.387512,752.390442 543.856201,750.167847 548.605225,750.254578 
	C553.070740,750.336121 553.393311,752.436890 553.368103,755.853027 
	C553.274658,768.506531 553.333984,781.161133 553.323669,793.815308 
	C553.317139,801.803101 553.307068,801.841736 561.519165,801.895813 
	C569.511780,801.948486 577.504944,801.925293 585.497803,801.904968 
	C588.533752,801.897278 591.152527,802.045837 591.176270,806.260742 
	C591.200256,810.518616 588.820251,811.128723 585.380981,811.104980 
	C573.225281,811.020996 561.066528,810.920959 548.913818,811.120422 
	C544.624207,811.190857 543.568665,809.435425 543.616394,805.478333 
	C543.784912,791.492310 543.674561,777.502869 543.669556,763.018555 
z"/>
<path fill="#000000" opacity="1.000000" stroke="none" 
	d="
M302.996582,801.849365 
	C307.820099,801.860229 312.146240,801.955017 316.468231,801.859924 
	C319.533569,801.792542 320.540558,803.165649 320.407257,806.124756 
	C320.282135,808.901794 319.963776,811.111633 316.440887,811.101257 
	C303.301819,811.062683 290.162567,811.080933 277.023407,811.059021 
	C274.373352,811.054626 273.314972,809.898254 273.345886,807.032471 
	C273.530670,789.906799 273.691864,772.776611 273.459167,755.653442 
	C273.396729,751.060181 275.431213,750.617859 279.094971,750.450684 
	C283.223175,750.262268 283.250427,752.674805 283.247772,755.528442 
	C283.235046,769.167114 283.363861,782.807251 283.181915,796.443420 
	C283.128265,800.463501 284.306122,802.243713 288.530457,801.989929 
	C293.172119,801.711121 297.840607,801.878967 302.996582,801.849365 
z"/>
<path fill="#000000" opacity="1.000000" stroke="none" 
	d="
M437.994232,559.011475 
	C440.247864,558.532288 442.220459,559.039673 444.002075,560.578125 
	C453.141998,568.470520 460.941223,577.492371 467.008331,587.951965 
	C467.980286,589.627625 468.970276,591.460022 468.246368,593.590332 
	C466.591553,594.955139 465.048431,594.086914 463.607849,593.320923 
	C456.145081,589.352844 448.057007,587.445190 439.792969,586.321045 
	C434.772064,585.638000 431.624756,583.916382 432.676575,578.119751 
	C433.232025,575.058533 431.596313,573.652161 428.659332,572.983948 
	C426.492737,572.490967 423.924164,571.910583 423.983490,568.360046 
	C424.020050,567.975525 423.987732,568.004333 424.318512,567.916992 
	C429.864044,566.013245 433.963165,562.510498 438.038513,558.971802 
	C438.038513,558.971802 438.008636,558.997681 437.994232,559.011475 
z"/>
<path fill="#000000" opacity="1.000000" stroke="none" 
	d="
M511.142517,537.194580 
	C516.232727,528.634338 524.045898,522.835571 529.630127,515.158936 
	C530.924377,513.379700 532.918396,513.917358 534.697266,513.795715 
	C537.167969,513.626648 539.639343,513.467834 542.752625,513.262207 
	C543.303528,519.138184 546.876831,523.711853 550.403931,528.134766 
	C545.039734,533.721680 517.974976,542.497314 509.713135,541.560852 
	C509.039215,539.881531 510.255920,538.768433 511.142517,537.194580 
z"/>
<path fill="#000000" opacity="1.000000" stroke="none" 
	d="
M626.202026,647.105835 
	C631.725891,646.226562 634.194702,648.290833 633.810242,653.524841 
	C632.567322,670.446167 634.493286,687.389587 633.456177,704.321106 
	C633.242798,707.804626 631.576416,708.412231 628.671570,708.344421 
	C625.953674,708.281067 623.691345,708.132629 623.699219,704.490723 
	C623.737915,686.541199 623.691406,668.591553 623.681458,650.641907 
	C623.680603,649.083191 623.864441,647.607056 626.202026,647.105835 
z"/>
<path fill="#000000" opacity="1.000000" stroke="none" 
	d="
M595.351746,543.243164 
	C587.689209,550.094910 579.340393,550.015015 573.651978,543.338379 
	C567.808838,536.480164 568.779358,525.818115 576.017273,520.275879 
	C580.861023,516.566895 586.303955,516.753113 591.530762,519.434448 
	C597.485535,522.489136 598.903870,528.058289 598.693237,534.180969 
	C598.583801,537.364746 597.701538,540.406860 595.351746,543.243164 
M576.492676,540.972717 
	C580.297791,544.743896 584.530029,545.961548 589.657959,543.249023 
	C588.546082,541.817017 587.595703,540.536499 586.584351,539.306091 
	C585.528992,538.022156 585.476135,535.685486 583.091980,535.752686 
	C581.127136,537.525452 583.448853,541.034485 579.923767,542.336548 
	C578.172363,541.106445 577.984009,539.229614 578.121948,537.219116 
	C578.314758,534.407959 578.520325,531.597656 578.720398,528.786987 
	C578.868469,526.707825 578.200562,524.056152 581.081177,523.438660 
	C584.330872,522.742188 587.841492,522.276184 590.357300,525.224182 
	C592.307373,527.509338 592.282410,530.287659 590.415955,532.570679 
	C587.403931,536.254883 589.934570,537.956299 592.386292,540.075073 
	C596.258423,534.141907 595.560852,527.646240 590.866577,523.698364 
	C586.860657,520.329407 581.176453,520.506042 577.211975,524.122742 
	C572.702393,528.236694 572.287781,533.912354 576.492676,540.972717 
M586.432434,530.403320 
	C588.055908,528.728638 587.214233,527.770874 585.405823,527.369141 
	C584.082520,527.075134 582.498779,527.202393 582.535034,529.017517 
	C582.579102,531.221130 584.326111,530.864258 586.432434,530.403320 
z"/>
<path fill="#000000" opacity="1.000000" stroke="none" 
	d="
M418.118500,316.881226 
	C415.518372,313.521240 411.919861,311.433228 409.981812,307.286163 
	C415.386597,306.267639 420.455688,305.855804 425.363831,304.524567 
	C428.223694,303.748840 430.045227,305.872101 430.995361,308.369110 
	C433.978485,316.209167 434.609955,324.348602 434.225464,334.057129 
	C427.687012,328.434021 423.392120,322.421143 418.118500,316.881226 
z"/>
<path fill="#000000" opacity="1.000000" stroke="none" 
	d="
M361.010376,521.011658 
	C359.988739,522.122009 358.797058,522.375916 357.417786,521.734436 
	C356.517242,521.315613 355.542419,520.438965 354.720703,520.562805 
	C345.298340,521.982178 343.686646,515.661682 342.578583,508.641876 
	C342.183136,506.136871 340.213745,503.993896 340.995178,500.849731 
	C346.110504,508.935455 352.422882,515.685669 360.743896,520.874268 
	C361.034241,521.053955 361.017059,521.025208 361.010376,521.011658 
z"/>
</svg>